<svg xmlns="http://www.w3.org/2000/svg" id="Layer_1" data-name="Layer 1" viewBox="45.75 25.67 52.5 59.93"><defs><style>.cls-1{fill:#9fef00;}</style></defs><path class="cls-1" d="M98.24789,41.78317l.00064-.01976A2.21861,2.21861,0,0,0,97.47,40.07625c-.02361-.02057-.048-.04026-.0726-.05981l-.0219-.0172a2.06848,2.06848,0,0,0-.26809-.17609L73.14257,25.98682q-.087-.0516-.17747-.09563a2.22461,2.22461,0,0,0-2.12569.10645L46.86119,39.841a2.21983,2.21983,0,0,0-1.10986,1.92246c0,.01606.00124.03194.00158.048-.00035.01773-.00295.03525-.00295.053V69.50959a2.21941,2.21941,0,0,0,1.17109,1.95686l23.969,13.83843q.06646.0384.13486.07171l.00948.00427a2.21072,2.21072,0,0,0,.20814.08716l.02937.011a2.19541,2.19541,0,0,0,.21136.0613l.04043.00937c.071.01563.14257.028.21453.0366l.03445.00335a2.027,2.027,0,0,0,.45452,0l.03439-.00335c.072-.00855.1435-.021.21457-.0366l.04037-.00933c.07119-.017.14179-.03713.2114-.06131l.02934-.011a2.2188,2.2188,0,0,0,.208-.08709l.00965-.00438q.06834-.03343.13487-.07167l23.969-13.83843a2.21936,2.21936,0,0,0,1.17108-1.95686L98.25,41.8473C98.25,41.82586,98.24846,41.80457,98.24789,41.78317Zm-43.093-.92392L71.478,31.435a1.04424,1.04424,0,0,1,1.04433,0l16.3229,9.424a1.04434,1.04434,0,0,1,0,1.80885L72.52212,52.09209a1.0444,1.0444,0,0,1-1.04435,0L55.15485,42.66807A1.04432,1.04432,0,0,1,55.15485,40.85925ZM69.1723,76.68046a1.04193,1.04193,0,0,1-1.56289.90234L51.31825,68.177a1.042,1.042,0,0,1-.52095-.90234V48.4648a1.04191,1.04191,0,0,1,1.56288-.9023l16.29116,9.40578a1.042,1.042,0,0,1,.521.90235Zm24.03028-9.40579a1.042,1.042,0,0,1-.521.90234L76.39046,77.5828a1.04192,1.04192,0,0,1-1.56288-.90234V57.87063a1.042,1.042,0,0,1,.52095-.90235L91.63968,47.5625a1.04193,1.04193,0,0,1,1.5629.90234Z"></path></svg>
